<svg width="24" height="24" viewBox="0 0 24 24" xmlns="http://www.w3.org/2000/svg">
  <!-- ReviewLens: a review comment bubble with an approve checkmark.
       Single-color silhouette; the activity bar masks it with the theme foreground. -->
  <path fill-rule="evenodd" clip-rule="evenodd"
        d="M3 3.5h18a1.5 1.5 0 0 1 1.5 1.5v11a1.5 1.5 0 0 1-1.5 1.5H9l-4.2 3.9A.8.8 0 0 1 3.5 21V17H3a1.5 1.5 0 0 1-1.5-1.5V5A1.5 1.5 0 0 1 3 3.5Zm8.2 9.7L7.7 9.7l1.3-1.3 2.2 2.2 4.1-4.1 1.3 1.3-5.4 5.4Z"/>
</svg>
